<mxfile host="app.diagrams.net" modified="2024-02-29T04:25:00.102Z" agent="Mozilla/5.0 (Windows NT 10.0; Win64; x64) AppleWebKit/537.36 (KHTML, like Gecko) Chrome/122.0.0.0 Safari/537.36 Edg/122.0.0.0" etag="_air9GSbP3HGDKUM5vc4" version="23.1.8" type="github">
  <diagram name="Page-1" id="c4acf3e9-155e-7222-9cf6-157b1a14988f">
    <mxGraphModel dx="1386" dy="785" grid="1" gridSize="10" guides="1" tooltips="1" connect="1" arrows="1" fold="1" page="1" pageScale="1" pageWidth="850" pageHeight="1100" background="none" math="0" shadow="0">
      <root>
        <mxCell id="0" />
        <mxCell id="1" parent="0" />
        <mxCell id="R5vDfpfvX1xNPEYxl-s8-1" value="Administrador" style="shape=umlActor;verticalLabelPosition=bottom;verticalAlign=top;html=1;" vertex="1" parent="1">
          <mxGeometry x="30" y="200" width="30" height="60" as="geometry" />
        </mxCell>
        <mxCell id="R5vDfpfvX1xNPEYxl-s8-4" value="Usuario" style="shape=umlActor;verticalLabelPosition=bottom;verticalAlign=top;html=1;" vertex="1" parent="1">
          <mxGeometry x="30" y="400" width="30" height="60" as="geometry" />
        </mxCell>
        <mxCell id="R5vDfpfvX1xNPEYxl-s8-8" value="Registro de libros" style="ellipse;whiteSpace=wrap;html=1;" vertex="1" parent="1">
          <mxGeometry x="160" y="82" width="110" height="40" as="geometry" />
        </mxCell>
        <mxCell id="R5vDfpfvX1xNPEYxl-s8-10" value="Gestión de Biblioteca" style="shape=umlFrame;whiteSpace=wrap;html=1;pointerEvents=0;width=140;height=30;" vertex="1" parent="1">
          <mxGeometry x="120" y="40" width="570" height="900" as="geometry" />
        </mxCell>
        <mxCell id="R5vDfpfvX1xNPEYxl-s8-11" value="Registro de usuarios" style="ellipse;whiteSpace=wrap;html=1;" vertex="1" parent="1">
          <mxGeometry x="160" y="142" width="110" height="40" as="geometry" />
        </mxCell>
        <mxCell id="R5vDfpfvX1xNPEYxl-s8-12" value="Gestión de usuarios" style="ellipse;whiteSpace=wrap;html=1;" vertex="1" parent="1">
          <mxGeometry x="160" y="192" width="110" height="50" as="geometry" />
        </mxCell>
        <mxCell id="R5vDfpfvX1xNPEYxl-s8-14" value="Gestión de libros" style="ellipse;whiteSpace=wrap;html=1;" vertex="1" parent="1">
          <mxGeometry x="160" y="252" width="110" height="50" as="geometry" />
        </mxCell>
        <mxCell id="R5vDfpfvX1xNPEYxl-s8-15" value="Búsqueda de libros" style="ellipse;whiteSpace=wrap;html=1;" vertex="1" parent="1">
          <mxGeometry x="160" y="312" width="110" height="50" as="geometry" />
        </mxCell>
        <mxCell id="R5vDfpfvX1xNPEYxl-s8-16" value="Préstamo de libros" style="ellipse;whiteSpace=wrap;html=1;" vertex="1" parent="1">
          <mxGeometry x="160" y="372" width="110" height="50" as="geometry" />
        </mxCell>
        <mxCell id="R5vDfpfvX1xNPEYxl-s8-17" value="Devolución de libros" style="ellipse;whiteSpace=wrap;html=1;" vertex="1" parent="1">
          <mxGeometry x="160" y="527" width="110" height="50" as="geometry" />
        </mxCell>
        <mxCell id="R5vDfpfvX1xNPEYxl-s8-18" value="Historial de transacciones" style="ellipse;whiteSpace=wrap;html=1;" vertex="1" parent="1">
          <mxGeometry x="160" y="615" width="110" height="50" as="geometry" />
        </mxCell>
        <mxCell id="R5vDfpfvX1xNPEYxl-s8-20" value="" style="endArrow=none;html=1;rounded=0;exitX=0.5;exitY=0.5;exitDx=0;exitDy=0;exitPerimeter=0;" edge="1" parent="1" source="R5vDfpfvX1xNPEYxl-s8-1" target="R5vDfpfvX1xNPEYxl-s8-8">
          <mxGeometry width="50" height="50" relative="1" as="geometry">
            <mxPoint x="400" y="430" as="sourcePoint" />
            <mxPoint x="450" y="380" as="targetPoint" />
          </mxGeometry>
        </mxCell>
        <mxCell id="R5vDfpfvX1xNPEYxl-s8-21" value="" style="endArrow=none;html=1;rounded=0;exitX=0.5;exitY=0.5;exitDx=0;exitDy=0;exitPerimeter=0;entryX=0;entryY=0.5;entryDx=0;entryDy=0;" edge="1" parent="1" source="R5vDfpfvX1xNPEYxl-s8-4" target="R5vDfpfvX1xNPEYxl-s8-11">
          <mxGeometry width="50" height="50" relative="1" as="geometry">
            <mxPoint x="80" y="310" as="sourcePoint" />
            <mxPoint x="130" y="260" as="targetPoint" />
          </mxGeometry>
        </mxCell>
        <mxCell id="R5vDfpfvX1xNPEYxl-s8-22" value="" style="endArrow=none;html=1;rounded=0;exitX=0.5;exitY=0.5;exitDx=0;exitDy=0;exitPerimeter=0;entryX=0;entryY=0.5;entryDx=0;entryDy=0;" edge="1" parent="1" source="R5vDfpfvX1xNPEYxl-s8-1" target="R5vDfpfvX1xNPEYxl-s8-11">
          <mxGeometry width="50" height="50" relative="1" as="geometry">
            <mxPoint x="30" y="290" as="sourcePoint" />
            <mxPoint x="80" y="240" as="targetPoint" />
          </mxGeometry>
        </mxCell>
        <mxCell id="R5vDfpfvX1xNPEYxl-s8-23" value="" style="endArrow=none;html=1;rounded=0;exitX=0.5;exitY=0.5;exitDx=0;exitDy=0;exitPerimeter=0;entryX=0;entryY=0.5;entryDx=0;entryDy=0;" edge="1" parent="1" source="R5vDfpfvX1xNPEYxl-s8-4" target="R5vDfpfvX1xNPEYxl-s8-16">
          <mxGeometry width="50" height="50" relative="1" as="geometry">
            <mxPoint x="20" y="310" as="sourcePoint" />
            <mxPoint x="70" y="260" as="targetPoint" />
          </mxGeometry>
        </mxCell>
        <mxCell id="R5vDfpfvX1xNPEYxl-s8-24" value="" style="endArrow=none;html=1;rounded=0;exitX=0.5;exitY=0.5;exitDx=0;exitDy=0;exitPerimeter=0;entryX=0;entryY=0.5;entryDx=0;entryDy=0;" edge="1" parent="1" source="R5vDfpfvX1xNPEYxl-s8-4" target="R5vDfpfvX1xNPEYxl-s8-17">
          <mxGeometry width="50" height="50" relative="1" as="geometry">
            <mxPoint x="50" y="350" as="sourcePoint" />
            <mxPoint x="100" y="300" as="targetPoint" />
          </mxGeometry>
        </mxCell>
        <mxCell id="R5vDfpfvX1xNPEYxl-s8-26" value="" style="endArrow=none;html=1;rounded=0;exitX=0.5;exitY=0.5;exitDx=0;exitDy=0;exitPerimeter=0;entryX=0;entryY=0.5;entryDx=0;entryDy=0;" edge="1" parent="1" source="R5vDfpfvX1xNPEYxl-s8-4" target="R5vDfpfvX1xNPEYxl-s8-15">
          <mxGeometry width="50" height="50" relative="1" as="geometry">
            <mxPoint x="10" y="290" as="sourcePoint" />
            <mxPoint x="60" y="240" as="targetPoint" />
          </mxGeometry>
        </mxCell>
        <mxCell id="R5vDfpfvX1xNPEYxl-s8-27" value="" style="endArrow=none;html=1;rounded=0;entryX=0.5;entryY=0.5;entryDx=0;entryDy=0;entryPerimeter=0;exitX=0;exitY=0.5;exitDx=0;exitDy=0;" edge="1" parent="1" source="R5vDfpfvX1xNPEYxl-s8-12" target="R5vDfpfvX1xNPEYxl-s8-1">
          <mxGeometry width="50" height="50" relative="1" as="geometry">
            <mxPoint x="50" y="290" as="sourcePoint" />
            <mxPoint x="100" y="240" as="targetPoint" />
          </mxGeometry>
        </mxCell>
        <mxCell id="R5vDfpfvX1xNPEYxl-s8-28" value="" style="endArrow=none;html=1;rounded=0;entryX=0.5;entryY=0.5;entryDx=0;entryDy=0;entryPerimeter=0;exitX=0;exitY=0.5;exitDx=0;exitDy=0;" edge="1" parent="1" source="R5vDfpfvX1xNPEYxl-s8-14" target="R5vDfpfvX1xNPEYxl-s8-1">
          <mxGeometry width="50" height="50" relative="1" as="geometry">
            <mxPoint x="30" y="300" as="sourcePoint" />
            <mxPoint x="80" y="250" as="targetPoint" />
          </mxGeometry>
        </mxCell>
        <mxCell id="R5vDfpfvX1xNPEYxl-s8-29" value="" style="endArrow=none;html=1;rounded=0;entryX=0.5;entryY=0.5;entryDx=0;entryDy=0;entryPerimeter=0;exitX=0;exitY=0.5;exitDx=0;exitDy=0;" edge="1" parent="1" source="R5vDfpfvX1xNPEYxl-s8-18" target="R5vDfpfvX1xNPEYxl-s8-1">
          <mxGeometry width="50" height="50" relative="1" as="geometry">
            <mxPoint x="70" y="300" as="sourcePoint" />
            <mxPoint x="120" y="250" as="targetPoint" />
          </mxGeometry>
        </mxCell>
        <mxCell id="R5vDfpfvX1xNPEYxl-s8-30" value="" style="endArrow=none;html=1;rounded=0;entryX=0.5;entryY=0.5;entryDx=0;entryDy=0;entryPerimeter=0;exitX=0;exitY=0.5;exitDx=0;exitDy=0;" edge="1" parent="1" source="R5vDfpfvX1xNPEYxl-s8-18" target="R5vDfpfvX1xNPEYxl-s8-4">
          <mxGeometry width="50" height="50" relative="1" as="geometry">
            <mxPoint x="-40" y="320" as="sourcePoint" />
            <mxPoint x="10" y="270" as="targetPoint" />
          </mxGeometry>
        </mxCell>
        <mxCell id="R5vDfpfvX1xNPEYxl-s8-33" value="Login" style="ellipse;whiteSpace=wrap;html=1;" vertex="1" parent="1">
          <mxGeometry x="160" y="675" width="110" height="50" as="geometry" />
        </mxCell>
        <mxCell id="R5vDfpfvX1xNPEYxl-s8-34" value="" style="endArrow=none;html=1;rounded=0;entryX=0.5;entryY=0.5;entryDx=0;entryDy=0;entryPerimeter=0;exitX=0;exitY=0.5;exitDx=0;exitDy=0;" edge="1" parent="1" source="R5vDfpfvX1xNPEYxl-s8-33" target="R5vDfpfvX1xNPEYxl-s8-1">
          <mxGeometry width="50" height="50" relative="1" as="geometry">
            <mxPoint x="-130" y="600" as="sourcePoint" />
            <mxPoint x="-80" y="550" as="targetPoint" />
          </mxGeometry>
        </mxCell>
        <mxCell id="R5vDfpfvX1xNPEYxl-s8-35" value="" style="endArrow=none;html=1;rounded=0;entryX=0.5;entryY=0.5;entryDx=0;entryDy=0;entryPerimeter=0;exitX=0;exitY=0.5;exitDx=0;exitDy=0;" edge="1" parent="1" source="R5vDfpfvX1xNPEYxl-s8-33" target="R5vDfpfvX1xNPEYxl-s8-4">
          <mxGeometry width="50" height="50" relative="1" as="geometry">
            <mxPoint x="-140" y="580" as="sourcePoint" />
            <mxPoint x="-90" y="530" as="targetPoint" />
          </mxGeometry>
        </mxCell>
        <mxCell id="R5vDfpfvX1xNPEYxl-s8-36" value="Multas por entrega tardías" style="ellipse;whiteSpace=wrap;html=1;" vertex="1" parent="1">
          <mxGeometry x="337" y="557" width="120" height="50" as="geometry" />
        </mxCell>
        <mxCell id="R5vDfpfvX1xNPEYxl-s8-38" value="return" style="html=1;verticalAlign=bottom;endArrow=open;dashed=1;endSize=8;curved=0;rounded=0;exitX=0;exitY=0.5;exitDx=0;exitDy=0;entryX=1;entryY=0.5;entryDx=0;entryDy=0;" edge="1" parent="1" source="R5vDfpfvX1xNPEYxl-s8-36" target="R5vDfpfvX1xNPEYxl-s8-17">
          <mxGeometry x="-0.1538" y="-10" relative="1" as="geometry">
            <mxPoint x="385" y="617" as="sourcePoint" />
            <mxPoint x="305" y="617" as="targetPoint" />
            <mxPoint y="1" as="offset" />
          </mxGeometry>
        </mxCell>
        <mxCell id="R5vDfpfvX1xNPEYxl-s8-39" value="Verificar credenciales" style="ellipse;whiteSpace=wrap;html=1;" vertex="1" parent="1">
          <mxGeometry x="342" y="637" width="110" height="50" as="geometry" />
        </mxCell>
        <mxCell id="R5vDfpfvX1xNPEYxl-s8-41" value="Use" style="endArrow=open;endSize=12;dashed=1;html=1;rounded=0;exitX=1;exitY=0.5;exitDx=0;exitDy=0;entryX=0;entryY=0.5;entryDx=0;entryDy=0;" edge="1" parent="1" source="R5vDfpfvX1xNPEYxl-s8-33" target="R5vDfpfvX1xNPEYxl-s8-39">
          <mxGeometry x="-0.3627" y="13" width="160" relative="1" as="geometry">
            <mxPoint x="-70" y="646" as="sourcePoint" />
            <mxPoint x="90" y="646" as="targetPoint" />
            <mxPoint as="offset" />
          </mxGeometry>
        </mxCell>
        <mxCell id="R5vDfpfvX1xNPEYxl-s8-43" value="Verificar si el libro existe" style="ellipse;whiteSpace=wrap;html=1;" vertex="1" parent="1">
          <mxGeometry x="317" y="42" width="110" height="40" as="geometry" />
        </mxCell>
        <mxCell id="R5vDfpfvX1xNPEYxl-s8-44" value="Use" style="endArrow=open;endSize=12;dashed=1;html=1;rounded=0;entryX=0;entryY=0.5;entryDx=0;entryDy=0;exitX=1;exitY=0.5;exitDx=0;exitDy=0;" edge="1" parent="1" source="R5vDfpfvX1xNPEYxl-s8-8" target="R5vDfpfvX1xNPEYxl-s8-43">
          <mxGeometry width="160" relative="1" as="geometry">
            <mxPoint x="340" y="390" as="sourcePoint" />
            <mxPoint x="500" y="390" as="targetPoint" />
          </mxGeometry>
        </mxCell>
        <mxCell id="R5vDfpfvX1xNPEYxl-s8-46" value="Verificar si el usuario existe" style="ellipse;whiteSpace=wrap;html=1;" vertex="1" parent="1">
          <mxGeometry x="317" y="110" width="110" height="40" as="geometry" />
        </mxCell>
        <mxCell id="R5vDfpfvX1xNPEYxl-s8-47" value="Use" style="endArrow=open;endSize=12;dashed=1;html=1;rounded=0;exitX=1;exitY=0.5;exitDx=0;exitDy=0;entryX=0;entryY=0.5;entryDx=0;entryDy=0;" edge="1" parent="1" source="R5vDfpfvX1xNPEYxl-s8-11" target="R5vDfpfvX1xNPEYxl-s8-46">
          <mxGeometry width="160" relative="1" as="geometry">
            <mxPoint x="350" y="230" as="sourcePoint" />
            <mxPoint x="510" y="230" as="targetPoint" />
          </mxGeometry>
        </mxCell>
        <mxCell id="R5vDfpfvX1xNPEYxl-s8-48" value="Verificar disponibilidad" style="ellipse;whiteSpace=wrap;html=1;" vertex="1" parent="1">
          <mxGeometry x="343" y="355" width="110" height="40" as="geometry" />
        </mxCell>
        <mxCell id="R5vDfpfvX1xNPEYxl-s8-49" value="Verificar solvencia" style="ellipse;whiteSpace=wrap;html=1;" vertex="1" parent="1">
          <mxGeometry x="340" y="407" width="110" height="40" as="geometry" />
        </mxCell>
        <mxCell id="R5vDfpfvX1xNPEYxl-s8-50" value="Actualizar base de datos" style="ellipse;whiteSpace=wrap;html=1;" vertex="1" parent="1">
          <mxGeometry x="516" y="325" width="110" height="40" as="geometry" />
        </mxCell>
        <mxCell id="R5vDfpfvX1xNPEYxl-s8-51" value="Use" style="endArrow=open;endSize=12;dashed=1;html=1;rounded=0;exitX=1;exitY=0.5;exitDx=0;exitDy=0;entryX=0;entryY=0.5;entryDx=0;entryDy=0;" edge="1" parent="1" source="R5vDfpfvX1xNPEYxl-s8-16" target="R5vDfpfvX1xNPEYxl-s8-48">
          <mxGeometry width="160" relative="1" as="geometry">
            <mxPoint x="340" y="310" as="sourcePoint" />
            <mxPoint x="500" y="310" as="targetPoint" />
          </mxGeometry>
        </mxCell>
        <mxCell id="R5vDfpfvX1xNPEYxl-s8-52" value="Use" style="endArrow=open;endSize=12;dashed=1;html=1;rounded=0;exitX=1;exitY=0.5;exitDx=0;exitDy=0;entryX=0;entryY=0.5;entryDx=0;entryDy=0;" edge="1" parent="1" source="R5vDfpfvX1xNPEYxl-s8-16" target="R5vDfpfvX1xNPEYxl-s8-49">
          <mxGeometry width="160" relative="1" as="geometry">
            <mxPoint x="320" y="370" as="sourcePoint" />
            <mxPoint x="480" y="370" as="targetPoint" />
          </mxGeometry>
        </mxCell>
        <mxCell id="R5vDfpfvX1xNPEYxl-s8-53" value="Use" style="endArrow=open;endSize=12;dashed=1;html=1;rounded=0;exitX=1;exitY=0.5;exitDx=0;exitDy=0;entryX=0;entryY=0.5;entryDx=0;entryDy=0;" edge="1" parent="1" source="R5vDfpfvX1xNPEYxl-s8-48" target="R5vDfpfvX1xNPEYxl-s8-50">
          <mxGeometry width="160" relative="1" as="geometry">
            <mxPoint x="366" y="523" as="sourcePoint" />
            <mxPoint x="526" y="523" as="targetPoint" />
          </mxGeometry>
        </mxCell>
        <mxCell id="R5vDfpfvX1xNPEYxl-s8-55" value="Modificar, eliminar usuario" style="ellipse;whiteSpace=wrap;html=1;" vertex="1" parent="1">
          <mxGeometry x="350" y="170" width="110" height="40" as="geometry" />
        </mxCell>
        <mxCell id="R5vDfpfvX1xNPEYxl-s8-59" value="Use" style="endArrow=open;endSize=12;dashed=1;html=1;rounded=0;exitX=1;exitY=0.5;exitDx=0;exitDy=0;entryX=0;entryY=0.5;entryDx=0;entryDy=0;" edge="1" parent="1" source="R5vDfpfvX1xNPEYxl-s8-12" target="R5vDfpfvX1xNPEYxl-s8-55">
          <mxGeometry width="160" relative="1" as="geometry">
            <mxPoint x="340" y="280" as="sourcePoint" />
            <mxPoint x="500" y="280" as="targetPoint" />
          </mxGeometry>
        </mxCell>
        <mxCell id="R5vDfpfvX1xNPEYxl-s8-60" value="Agregar, modificar, eliminar libro" style="ellipse;whiteSpace=wrap;html=1;" vertex="1" parent="1">
          <mxGeometry x="350" y="242" width="110" height="40" as="geometry" />
        </mxCell>
        <mxCell id="R5vDfpfvX1xNPEYxl-s8-61" value="Use" style="endArrow=open;endSize=12;dashed=1;html=1;rounded=0;exitX=1;exitY=0.5;exitDx=0;exitDy=0;entryX=0;entryY=0.5;entryDx=0;entryDy=0;" edge="1" parent="1" source="R5vDfpfvX1xNPEYxl-s8-14" target="R5vDfpfvX1xNPEYxl-s8-60">
          <mxGeometry width="160" relative="1" as="geometry">
            <mxPoint x="300" y="300" as="sourcePoint" />
            <mxPoint x="460" y="300" as="targetPoint" />
          </mxGeometry>
        </mxCell>
        <mxCell id="R5vDfpfvX1xNPEYxl-s8-62" value="Actualizar base de datos" style="ellipse;whiteSpace=wrap;html=1;" vertex="1" parent="1">
          <mxGeometry x="350" y="487" width="110" height="40" as="geometry" />
        </mxCell>
        <mxCell id="R5vDfpfvX1xNPEYxl-s8-63" value="Use" style="endArrow=open;endSize=12;dashed=1;html=1;rounded=0;exitX=1;exitY=0.5;exitDx=0;exitDy=0;entryX=0;entryY=0.5;entryDx=0;entryDy=0;" edge="1" parent="1" source="R5vDfpfvX1xNPEYxl-s8-17" target="R5vDfpfvX1xNPEYxl-s8-62">
          <mxGeometry width="160" relative="1" as="geometry">
            <mxPoint x="180" y="510" as="sourcePoint" />
            <mxPoint x="340" y="510" as="targetPoint" />
          </mxGeometry>
        </mxCell>
        <mxCell id="R5vDfpfvX1xNPEYxl-s8-64" value="Sistema" style="shape=umlActor;verticalLabelPosition=bottom;verticalAlign=top;html=1;" vertex="1" parent="1">
          <mxGeometry x="30" y="770" width="30" height="60" as="geometry" />
        </mxCell>
        <mxCell id="R5vDfpfvX1xNPEYxl-s8-74" value="Recordatorio de entrega" style="ellipse;whiteSpace=wrap;html=1;" vertex="1" parent="1">
          <mxGeometry x="160" y="770" width="110" height="50" as="geometry" />
        </mxCell>
        <mxCell id="R5vDfpfvX1xNPEYxl-s8-75" value="" style="endArrow=none;html=1;rounded=0;exitX=0.5;exitY=0.5;exitDx=0;exitDy=0;exitPerimeter=0;entryX=0;entryY=0.5;entryDx=0;entryDy=0;" edge="1" parent="1" source="R5vDfpfvX1xNPEYxl-s8-64" target="R5vDfpfvX1xNPEYxl-s8-74">
          <mxGeometry width="50" height="50" relative="1" as="geometry">
            <mxPoint x="70" y="780" as="sourcePoint" />
            <mxPoint x="120" y="730" as="targetPoint" />
          </mxGeometry>
        </mxCell>
        <mxCell id="R5vDfpfvX1xNPEYxl-s8-76" value="Multas por atraso" style="ellipse;whiteSpace=wrap;html=1;" vertex="1" parent="1">
          <mxGeometry x="160" y="840" width="110" height="50" as="geometry" />
        </mxCell>
        <mxCell id="R5vDfpfvX1xNPEYxl-s8-77" value="" style="endArrow=none;html=1;rounded=0;entryX=0;entryY=0.5;entryDx=0;entryDy=0;" edge="1" parent="1" target="R5vDfpfvX1xNPEYxl-s8-76">
          <mxGeometry width="50" height="50" relative="1" as="geometry">
            <mxPoint x="50" y="800" as="sourcePoint" />
            <mxPoint x="130" y="720" as="targetPoint" />
          </mxGeometry>
        </mxCell>
      </root>
    </mxGraphModel>
  </diagram>
</mxfile>
